<?xml version="1.0" encoding="UTF-8"?>
<svg id="Groupe_30154" xmlns="http://www.w3.org/2000/svg" version="1.1" xmlns:xlink="http://www.w3.org/1999/xlink" viewBox="0 0 219.74 68.17">
  <!-- Generator: Adobe Illustrator 29.8.2, SVG Export Plug-In . SVG Version: 2.1.1 Build 3)  -->
  <defs>
    <style>
      .st0 {
        fill: #03b585;
      }

      .st1 {
        fill: none;
      }

      .st2 {
        clip-path: url(#clippath);
      }
    </style>
    <clipPath id="clippath">
      <rect class="st1" y="0" width="219.74" height="68.17"/>
    </clipPath>
  </defs>
  <rect id="Rectangle_20564" class="st0" x="25.51" y="37.72" width=".99" height="15.75" transform="translate(-14.2 11.85) rotate(-20.3)"/>
  <rect id="Rectangle_20565" class="st0" x="44.49" y="19.54" width=".99" height="25.05" transform="translate(-8.85 44.46) rotate(-48.45)"/>
  <rect id="Rectangle_20566" class="st0" x="37.31" y="23.49" width=".99" height="29.73" transform="translate(-4.1 72.17) rotate(-84.32)"/>
  <rect id="Rectangle_20567" class="st0" x="19.22" y="37.54" width="26.84" height=".99" transform="translate(-11.65 61.49) rotate(-77.27)"/>
  <rect id="Rectangle_20568" class="st0" x="28.04" y="47.62" width="26.83" height=".99" transform="translate(-16.97 23.23) rotate(-26.18)"/>
  <rect id="Rectangle_20569" class="st0" x="18.57" y="30.07" width="16.87" height=".99" transform="translate(-13.35 24.63) rotate(-40.17)"/>
  <g id="Groupe_30032">
    <g class="st2">
      <g id="Groupe_30031">
        <path id="Tracé_53969" class="st0" d="M40.47,23.66c0,2.56-2.08,4.64-4.64,4.64s-4.64-2.08-4.64-4.64,2.08-4.64,4.64-4.64h0c2.56,0,4.64,2.08,4.64,4.64"/>
        <path id="Tracé_53970" class="st0" d="M60.36,40.85c0,2.56-2.08,4.64-4.64,4.64s-4.64-2.08-4.64-4.64,2.08-4.64,4.64-4.64h0c2.56,0,4.64,2.08,4.64,4.64"/>
        <path id="Tracé_53971" class="st0" d="M36.07,37.14c0,1.81-1.47,3.28-3.28,3.28s-3.28-1.47-3.28-3.28c0-1.81,1.47-3.28,3.28-3.28s3.28,1.47,3.28,3.28h0"/>
        <path id="Tracé_53972" class="st0" d="M35.13,52.87c0,2.56-2.08,4.64-4.64,4.64s-4.64-2.08-4.64-4.64,2.08-4.64,4.64-4.64h0c2.56,0,4.64,2.08,4.64,4.64"/>
        <path id="Tracé_53973" class="st0" d="M27.68,34.97c0,2.56-2.08,4.64-4.64,4.64s-4.64-2.08-4.64-4.64,2.08-4.64,4.64-4.64h0c2.56,0,4.64,2.08,4.64,4.64"/>
        <path id="Tracé_53974" class="st0" d="M6.11,35.59c-.76.71-1.41,1.36-2.09,1.96-.84.79-2.14.85-3.05.13-.92-.69-1.23-1.94-.73-2.98.15-.3.36-.57.6-.79C12.46,22.92,24.07,11.92,35.69.93c.71-.81,1.83-1.12,2.85-.79.49.18.93.46,1.31.82,4.27,3.97,8.53,7.96,12.78,11.96.18.17,11.48,10.8,11.84,11.15,3.45,3.29,6.89,6.59,10.32,9.9.97.88,1.04,2.38.16,3.34-.52.57-1.29.86-2.06.76-.56-.14-1.08-.4-1.53-.77-.62-.52-1.22-1.08-1.79-1.66v.63c0,9.37,0,18.74-.01,28.11.02.58-.07,1.16-.25,1.71-.3.86-1.14,1.42-2.05,1.36-19.59,0-39.19-.01-58.78-.01-1.27.02-2.32-.99-2.34-2.26,0-.03,0-.06,0-.09-.04-.83-.02-1.67-.02-2.51,0-8.87,0-17.73.01-26.6,0-.08-.01-.17-.03-.41M10.66,62.62h.78c17.63,0,35.26,0,52.89.01.53,0,.66-.15.66-.67-.01-10,0-19.99-.03-29.99-.01-.36-.15-.7-.4-.97-4.63-4.47-9.28-8.93-13.94-13.38-4.05-3.84-8.15-7.63-12.22-11.45-.44-.42-.72-.51-1.21-.03-1.39,1.36-2.87,2.63-4.27,3.97-7.23,6.87-14.45,13.75-21.67,20.63-.41.35-.63.87-.61,1.41.02,9.87.02,19.74.02,29.61v.85"/>
        <path id="Tracé_53975" class="st0" d="M88.39,19.07c.19.03.37.09.54.17.17.09.33.2.47.34.18.17.35.36.51.56l28.12,36.6c-.05-.59-.08-1.16-.12-1.71-.03-.55-.05-1.08-.05-1.58V19.02h5.77v48.61h-3.29c-.45.02-.9-.08-1.31-.27-.41-.23-.76-.54-1.03-.92l-28.12-36.6c.04.57.08,1.12.1,1.66.02.54.03,1.04.03,1.49v34.63h-5.77V19.02h3.39c.25,0,.5.01.75.05"/>
        <path id="Tracé_53976" class="st0" d="M147.64,32.72c1.95-.02,3.89.33,5.71,1.04,1.71.66,3.26,1.68,4.55,2.99,1.33,1.38,2.35,3.02,3,4.82.75,2.09,1.12,4.3,1.09,6.53.06.65-.05,1.3-.31,1.9-.27.35-.71.53-1.15.48h-22.96c0,1.92.3,3.83.88,5.66.47,1.48,1.23,2.84,2.24,4.02.93,1.06,2.09,1.88,3.39,2.41,1.4.55,2.9.82,4.41.8,1.32.03,2.65-.15,3.92-.53.97-.3,1.92-.68,2.83-1.14.68-.34,1.34-.72,1.98-1.14.4-.3.88-.49,1.37-.53.46-.02.89.2,1.15.58l1.7,2.2c-.76.92-1.67,1.72-2.68,2.36-1.05.67-2.17,1.22-3.34,1.65-1.2.43-2.43.76-3.68.97-1.24.21-2.5.32-3.77.32-2.24.03-4.47-.38-6.56-1.2-1.97-.78-3.74-1.98-5.19-3.53-1.52-1.66-2.69-3.62-3.41-5.75-.85-2.53-1.27-5.2-1.22-7.87-.02-2.29.35-4.56,1.1-6.72.69-2,1.76-3.84,3.17-5.41,1.41-1.55,3.13-2.78,5.05-3.6,2.12-.9,4.41-1.34,6.72-1.31M147.79,37.17c-2.55-.14-5.04.77-6.89,2.53-1.78,1.93-2.88,4.39-3.12,7h18.79c.01-1.31-.19-2.61-.59-3.85-.37-1.11-.95-2.14-1.73-3.02-.76-.85-1.71-1.52-2.77-1.97-1.17-.48-2.43-.72-3.7-.7"/>
        <path id="Tracé_53977" class="st0" d="M189.4,38.93c-.23.48-.73.77-1.26.75-.41-.02-.81-.15-1.15-.37-.43-.25-.96-.53-1.58-.83-.72-.34-1.46-.63-2.22-.85-.99-.28-2.02-.41-3.05-.39-.93-.01-1.86.12-2.75.39-.75.23-1.46.59-2.09,1.07-.55.42-1,.96-1.32,1.58-.31.6-.46,1.27-.46,1.95-.03.8.25,1.59.76,2.2.57.63,1.25,1.15,2.02,1.53.91.46,1.87.84,2.85,1.14,1.06.33,2.15.68,3.27,1.05,1.12.37,2.21.79,3.27,1.24,1.02.43,1.98,1,2.85,1.7.84.68,1.53,1.53,2.02,2.49.54,1.1.8,2.32.76,3.54.01,1.51-.27,3-.85,4.39-.56,1.34-1.42,2.53-2.51,3.49-1.19,1.03-2.58,1.82-4.07,2.32-1.79.59-3.67.88-5.56.85-2.23.03-4.44-.37-6.51-1.17-1.81-.7-3.49-1.72-4.95-3l1.43-2.31c.16-.27.38-.5.64-.68.29-.17.62-.25.95-.24.47.02.92.19,1.29.48.45.32,1,.67,1.65,1.05.75.43,1.54.78,2.36,1.05,1.12.34,2.29.51,3.46.48,1.05.02,2.09-.14,3.09-.46.81-.26,1.55-.69,2.2-1.24.57-.49,1.01-1.11,1.31-1.8.28-.69.43-1.43.42-2.17.03-.85-.24-1.69-.76-2.36-.56-.66-1.25-1.2-2.02-1.59-.92-.47-1.88-.86-2.87-1.15-1.07-.33-2.17-.67-3.29-1.03-1.12-.36-2.22-.77-3.29-1.24-1.04-.44-2-1.03-2.87-1.75-.85-.71-1.53-1.6-2.02-2.6-.54-1.17-.8-2.46-.76-3.75,0-1.3.28-2.59.81-3.78.55-1.22,1.36-2.31,2.37-3.19,1.13-.97,2.43-1.71,3.83-2.19,1.67-.57,3.43-.84,5.19-.81,2.08-.03,4.15.33,6.09,1.07,1.73.67,3.31,1.67,4.66,2.93l-1.35,2.21Z"/>
        <path id="Tracé_53978" class="st0" d="M209.31,68.17c-2.31.15-4.58-.67-6.26-2.27-1.46-1.51-2.19-3.7-2.19-6.55v-21.03h-4.14c-.33.01-.66-.1-.92-.32-.27-.26-.41-.63-.37-1v-2.41l5.63-.71,1.39-10.62c.06-.32.22-.61.46-.83.26-.22.59-.34.93-.32h3.05v11.84h9.94v4.38h-9.94v20.62c-.1,1.17.28,2.33,1.05,3.22.72.71,1.7,1.09,2.71,1.05.56.01,1.12-.07,1.65-.25.42-.15.82-.34,1.2-.56.34-.2.63-.39.86-.56.18-.15.4-.24.63-.25.36.03.69.25.85.58l1.76,2.88c-1.09,1-2.37,1.78-3.77,2.29-1.45.55-2.99.83-4.55.83"/>
      </g>
    </g>
  </g>
</svg>